<?xml version="1.0" encoding="utf-8"?>
<!-- Generator: Adobe Illustrator 26.0.0, SVG Export Plug-In . SVG Version: 6.00 Build 0)  -->
<svg version="1.1" id="Layer_1" xmlns="http://www.w3.org/2000/svg" xmlns:xlink="http://www.w3.org/1999/xlink" x="0px" y="0px"
	 viewBox="0 0 980 978.9" style="enable-background:new 0 0 980 978.9;" xml:space="preserve">
<style type="text/css">
	.st0{fill:#C61C1C;}
</style>
<path class="st0" d="M509,978.9h-38c-1.5-1-3.2-0.7-4.8-0.8c-43.3-1.9-85.7-9.1-126.6-23.1C188.4,903.5,84.7,802.6,28.4,653.5
	C13.5,614,5.2,572.8,1.8,530.7c-0.5-6.8-0.1-13.6-1.8-20.3v-43c0.4-1.9,0.7-3.9,0.9-5.9c1.8-36,7.8-71.7,17.9-106.4
	c31.3-107.3,92-194.1,181.9-260.5c67.4-49.7,143.1-79.6,226.1-90.6c34.4-4.5,69.1-5.3,103.7-2.4c37.6,3.2,74.5,9.9,110.2,22
	c139,47,238.7,137.3,299,271.1c21.9,48.5,34.2,99.7,38.6,152.8c0.6,6.9,0.1,14,1.8,20.8v42c-0.3,2.1-0.8,4.2-0.9,6.3
	c-1.8,36-7.8,71.7-17.8,106.3c-28.9,99.8-83.8,182.4-164.7,247.7c-77.8,62.6-166.6,98-266.4,106.4C523.2,977.8,516,977.1,509,978.9z
	 M177.7,520.7h-96c-7.3,0-7.4,0-6.5,7.5c1.7,16.4,4.2,32.6,7.6,48.7c21.9,99,72.9,179.6,153,241.9c65.3,50.8,139.8,79.1,222.5,85.4
	c48.2,3.7,96,0.1,142.3-13.7c136.2-40.3,229.9-127.2,281-259.6c12.9-33.5,19.9-68.5,23.3-104.2c0.3-3.5,0.8-6.2-4.6-6.2
	c-65.3,0.2-130.7,0.2-196,0c-3.4,0-4.7,1.2-5.2,4.3c-0.7,4.6-1.5,9.2-2.6,13.7c-27.1,111-135,180.2-247.4,158.7
	c-85.9-16.5-153.6-85.6-168.2-171.9c-0.6-3.4-1.8-4.9-5.7-4.8C242.7,520.8,210.2,520.7,177.7,520.7z M343.1,489.4
	c0,80.6,66.2,146.7,146.9,146.7s146.9-66,146.9-146.7s-66-146.6-146.9-146.6S343,408.7,343.1,489.4L343.1,489.4z"/>
</svg>
