<?xml version="1.0" encoding="utf-8"?>
<!-- Generator: Adobe Illustrator 27.2.0, SVG Export Plug-In . SVG Version: 6.00 Build 0)  -->
<svg version="1.1" id="Capa_1" xmlns="http://www.w3.org/2000/svg" xmlns:xlink="http://www.w3.org/1999/xlink" x="0px" y="0px"
	 viewBox="0 0 121.6 126.7" style="enable-background:new 0 0 121.6 126.7;" xml:space="preserve">
<style type="text/css">
	.st0{opacity:0.5;}
	.st1{fill:#798DCB;}
	.st2{fill:#915DCB;}
	.st3{fill:#4F5FCB;}
	.st4{fill:#6264CB;}
	.st5{fill:#3C52CB;}
	.st6{fill:#4449CB;}
	.st7{fill:#ADA7CB;}
	.st8{fill:#898BCB;}
	.st9{fill:#749CCB;}
</style>
<g>
	<g id="Capa_2_00000108280470923883131490000004904576950989084587_">
		<g id="Layer_1">
			<g class="st0">
				<circle class="st1" cx="71.9" cy="63.3" r="49.7"/>
				<g>
					<path class="st2" d="M71.9,14.2c27.1,0,49.1,22,49.1,49.1c0,27.1-22,49.1-49.1,49.1s-49.1-22-49.1-49.1c0,0,0,0,0,0
						C22.9,36.2,44.8,14.2,71.9,14.2 M71.9,13.6c-27.4,0-49.7,22.2-49.7,49.7S44.5,113,71.9,113s49.7-22.2,49.7-49.7c0,0,0,0,0,0
						C121.6,35.9,99.4,13.6,71.9,13.6C71.9,13.6,71.9,13.6,71.9,13.6z"/>
				</g>
			</g>
			<g class="st0">
				<path class="st3" d="M104.9,61c0,28.9-23.5,52.3-52.4,52.3S0.2,89.8,0.2,60.9C0.2,32,23.6,8.6,52.5,8.6
					C81.4,8.6,104.9,32,104.9,61C104.9,61,104.9,61,104.9,61z"/>
				<g>
					<path class="st4" d="M52.5,9.2c28.6,0,51.8,23.2,51.8,51.8s-23.2,51.8-51.8,51.8C24,112.7,0.8,89.6,0.8,61
						C0.8,32.4,23.9,9.2,52.5,9.2 M52.5,8.6C23.6,8.6,0.2,32,0.2,61c0,28.9,23.4,52.3,52.4,52.3c28.9,0,52.3-23.4,52.3-52.3
						C104.9,32.1,81.5,8.6,52.5,8.6C52.6,8.6,52.6,8.6,52.5,8.6z"/>
				</g>
			</g>
			<g class="st0">
				<path class="st5" d="M95,12c0,6.6-5.4,12-12,12s-12-5.4-12-12S76.4,0,83,0S95,5.4,95,12z"/>
				<g>
					<path class="st6" d="M83,0.6c6.3,0,11.4,5.1,11.4,11.4S89.4,23.4,83,23.4S71.6,18.3,71.6,12c0,0,0,0,0,0
						C71.6,5.7,76.7,0.6,83,0.6 M83,0c-6.6,0-12,5.4-12,12s5.4,12,12,12s12-5.4,12-12S89.6,0,83,0z"/>
				</g>
			</g>
			<g class="st0">
				<path class="st2" d="M26.1,109.4c0,6.6-5.4,12-12,12s-12-5.4-12-12s5.4-12,12-12S26.1,102.8,26.1,109.4z"/>
				<g>
					<path class="st2" d="M14.1,98c6.3,0,11.4,5.1,11.4,11.4c0,6.3-5.1,11.4-11.4,11.4s-11.4-5.1-11.4-11.4c0,0,0,0,0,0
						C2.7,103.1,7.8,98,14.1,98 M14.1,97.4c-6.6,0-12,5.4-12,12s5.4,12,12,12s12-5.4,12-12S20.7,97.4,14.1,97.4z"/>
				</g>
			</g>
			<g class="st0">
				<path class="st2" d="M104.5,21.7c0,2.7-2.2,4.9-4.9,4.9s-4.9-2.2-4.9-4.9s2.2-4.9,4.9-4.9l0,0C102.3,16.8,104.5,19,104.5,21.7z"
					/>
				<g>
					<path class="st2" d="M99.6,17.4c2.4,0,4.3,1.9,4.3,4.3s-1.9,4.3-4.3,4.3s-4.3-1.9-4.3-4.3c0,0,0,0,0,0
						C95.2,19.3,97.2,17.4,99.6,17.4 M99.6,16.8c-2.7,0-4.9,2.2-4.9,4.9c0,2.7,2.2,4.9,4.9,4.9c2.7,0,4.9-2.2,4.9-4.9v0
						C104.5,19,102.3,16.8,99.6,16.8z"/>
				</g>
			</g>
			<g class="st0">
				<path class="st2" d="M37.6,120.3c0,2.7-2.2,4.9-4.9,4.9c-2.7,0-4.9-2.2-4.9-4.9c0-2.7,2.2-4.9,4.9-4.9h0
					C35.4,115.4,37.6,117.6,37.6,120.3z"/>
				<g>
					<path class="st2" d="M32.7,116c2.4,0,4.3,1.9,4.3,4.3c0,2.4-1.9,4.3-4.3,4.3s-4.3-1.9-4.3-4.3c0,0,0,0,0,0
						C28.3,117.9,30.3,116,32.7,116L32.7,116 M32.7,115.4c-2.7,0-4.9,2.2-4.9,4.9c0,2.7,2.2,4.9,4.9,4.9c2.7,0,4.9-2.2,4.9-4.9l0,0
						C37.6,117.6,35.4,115.4,32.7,115.4z"/>
				</g>
			</g>
			<g class="st0">
				<path class="st2" d="M6.3,94c0,1.7-1.4,3.2-3.2,3.2S0,95.7,0,94c0-1.7,1.4-3.2,3.2-3.2S6.3,92.3,6.3,94L6.3,94z"/>
				<g>
					<path class="st2" d="M3.2,91.4c1.4,0,2.6,1.2,2.6,2.6c0,1.4-1.2,2.6-2.6,2.6S0.6,95.4,0.6,94c0,0,0,0,0,0
						C0.6,92.6,1.7,91.4,3.2,91.4 M3.1,90.8C1.4,90.8,0,92.3,0,94c0,1.7,1.4,3.2,3.2,3.2s3.1-1.4,3.2-3.2
						C6.3,92.3,4.9,90.8,3.1,90.8C3.2,90.8,3.2,90.8,3.1,90.8z"/>
				</g>
			</g>
			<g class="st0">
				<path class="st7" d="M100.6,79.8c0,25.9-21,46.8-46.8,46.8s-46.8-21-46.8-46.8S27.8,33,53.7,33c0,0,0,0,0,0
					C79.6,33,100.5,54,100.6,79.8z"/>
				<g>
					<path class="st2" d="M53.7,33.6c25.5,0,46.3,20.7,46.3,46.2s-20.7,46.3-46.2,46.3S7.5,105.4,7.5,79.8c0,0,0,0,0,0
						C7.5,54.3,28.2,33.6,53.7,33.6 M53.7,33C27.8,33,6.9,54,6.9,79.8s21,46.8,46.8,46.8s46.8-21,46.8-46.8c0,0,0,0,0,0
						C100.6,54,79.6,33,53.7,33C53.7,33,53.7,33,53.7,33z"/>
				</g>
			</g>
			<g class="st0">
				<path class="st8" d="M111.9,86.5c0,19.4-15.7,35.1-35.1,35.1c-19.4,0-35.1-15.7-35.1-35.1s15.7-35.1,35.1-35.1
					C96.2,51.4,111.9,67.1,111.9,86.5z"/>
				<g>
					<path class="st2" d="M76.8,52c19.1,0,34.6,15.5,34.6,34.6s-15.5,34.6-34.6,34.6s-34.6-15.5-34.6-34.6c0,0,0,0,0,0
						C42.2,67.5,57.7,52,76.8,52 M76.8,51.4c-19.4,0-35.1,15.7-35.1,35.1s15.7,35.1,35.1,35.1s35.1-15.7,35.1-35.1l0,0
						C111.9,67.2,96.2,51.4,76.8,51.4C76.8,51.4,76.8,51.4,76.8,51.4L76.8,51.4z"/>
				</g>
			</g>
			<g class="st0">
				<ellipse class="st9" cx="52.9" cy="67.8" rx="40.3" ry="42.6"/>
				<g>
					<path class="st2" d="M52.9,25.8c21.9,0,39.7,18.8,39.7,42s-17.8,42-39.7,42S13.1,91,13.1,67.8S31,25.8,52.9,25.8 M52.9,25.2
						c-22.3,0-40.3,19-40.3,42.5s18,42.6,40.3,42.6s40.3-19,40.3-42.6S75.1,25.2,52.9,25.2z"/>
				</g>
			</g>
		</g>
	</g>
</g>
</svg>
